<svg xmlns="http://www.w3.org/2000/svg" width="305" height="120" viewBox="0 0 305 120">
<g>
<path d="M 0.00 94.00 L 0.00 0.00 L 305.00 0.00 L 305.00 95.30 L 294.25 94.51 C288.34,94.07 281.04,93.59 278.03,93.45 C275.02,93.30 272.40,92.69 272.19,92.08 C271.99,91.48 271.42,91.24 270.91,91.55 C270.37,91.89 270.00,84.72 270.00,74.06 L 270.00 56.00 L 259.00 56.00 L 258.91 75.25 C258.85,88.76 258.54,93.55 257.90,91.32 C257.22,88.96 256.31,88.05 254.43,87.82 C251.65,87.47 249.48,83.97 242.19,68.00 C240.06,63.33 237.37,58.67 236.23,57.67 C233.15,54.94 227.01,54.43 222.91,56.54 C218.60,58.77 217.90,59.71 213.09,69.66 C208.97,78.17 207.09,79.74 202.41,78.57 C200.46,78.08 199.79,78.43 199.07,80.32 C197.36,84.81 195.24,86.00 188.93,86.00 C185.64,86.00 183.00,85.55 183.00,85.00 C183.00,84.44 185.83,84.00 189.50,84.00 C195.79,84.00 196.00,83.92 196.00,81.46 L 196.00 78.92 L 186.75 79.21 L 177.50 79.50 L 177.00 84.80 C176.51,89.96 176.46,90.04 174.76,88.05 C173.63,86.72 171.81,86.00 169.57,86.00 C164.21,86.00 164.34,84.15 169.73,83.81 C173.80,83.54 174.55,83.17 174.82,81.25 C175.13,79.08 174.86,79.00 167.14,79.00 C158.96,79.00 156.00,80.22 156.00,83.57 C156.00,86.02 154.49,85.14 153.31,82.00 L 152.17 79.00 L 143.59 79.00 C135.09,79.00 135.00,79.03 135.00,81.50 C135.00,82.88 134.55,84.00 134.00,84.00 C133.45,84.00 133.00,82.88 133.00,81.50 C133.00,79.01 132.97,79.00 122.75,78.84 C109.39,78.63 108.93,78.70 106.75,81.04 C105.09,82.82 104.73,82.87 103.37,81.52 C101.39,79.53 99.33,79.59 98.17,81.66 C97.34,83.14 97.16,83.08 96.55,81.16 C96.05,79.59 95.06,79.00 92.90,79.00 C90.29,79.00 90.05,79.23 90.94,80.89 C91.70,82.30 91.58,83.11 90.48,84.02 C89.48,84.85 89.00,84.89 89.00,84.14 C89.00,82.00 83.17,83.75 79.12,87.11 C76.87,88.97 75.03,90.84 75.02,91.25 C75.01,91.66 74.27,92.00 73.38,92.00 C72.17,92.00 71.94,91.44 72.45,89.75 C74.24,83.82 74.21,79.26 72.36,76.43 L 70.50 73.58 L 69.84 78.92 C69.48,81.85 68.25,85.52 67.11,87.07 C65.31,89.50 65.22,90.08 66.45,91.31 C67.68,92.54 67.68,93.01 66.42,94.81 C63.20,99.41 48.94,98.14 39.94,92.46 C36.98,90.59 35.07,90.04 33.07,90.48 C30.58,91.03 29.92,90.53 26.40,85.42 C22.18,79.27 20.69,80.00 23.03,87.08 C24.72,92.22 23.67,96.00 20.54,96.00 C19.21,96.00 17.84,95.55 17.50,95.00 C17.16,94.45 16.06,94.00 15.06,94.00 C14.06,94.00 12.68,93.32 12.00,92.50 C11.32,91.68 10.14,91.00 9.38,91.00 C8.62,91.00 8.00,91.68 8.00,92.50 C8.00,93.58 6.89,94.00 4.00,94.00 ZM 33.35 83.91 C35.31,86.31 35.37,82.54 33.45,77.52 C32.28,74.43 31.89,71.21 32.19,66.99 C32.63,60.92 32.65,60.90 40.54,52.96 C49.44,44.01 51.17,43.45 58.74,47.11 C61.14,48.28 63.36,48.98 63.66,48.67 C64.54,47.79 57.87,44.08 54.15,43.37 L 50.80 42.74 L 59.01 34.49 C63.52,29.96 66.82,26.02 66.35,25.75 C65.88,25.47 62.48,24.93 58.79,24.55 L 52.08 23.85 L 51.43 18.05 C51.06,14.86 50.38,11.63 49.91,10.87 C49.27,9.85 44.05,14.49 29.53,28.99 L 10.00 48.48 L 10.00 65.24 C10.00,77.96 10.30,82.01 11.25,82.03 C11.94,82.05 16.20,78.11 20.72,73.28 L 28.94 64.50 L 28.97 69.63 C29.00,74.57 30.97,80.98 33.35,83.91 ZM 241.35 46.44 L 243.91 49.00 L 268.20 48.98 C281.57,48.98 293.00,48.64 293.60,48.23 C295.81,46.76 297.00,43.00 297.00,37.50 C297.00,32.00 295.81,28.24 293.60,26.77 C293.00,26.36 281.43,26.02 267.90,26.02 C266.94,26.01 266.01,26.01 265.11,26.01 C248.54,25.99 242.80,25.99 240.67,28.76 C239.42,30.38 239.40,32.94 239.17,37.01 C238.81,43.30 238.99,44.08 241.35,46.44 ZM 89.71 74.38 C90.10,74.77 91.34,74.95 92.46,74.79 C94.26,74.53 94.50,73.78 94.50,68.25 C94.50,64.81 94.87,62.12 95.33,62.27 C95.78,62.43 97.58,65.24 99.33,68.53 C103.88,77.10 105.98,77.11 110.19,68.57 C111.97,64.95 113.78,62.00 114.21,62.00 C114.65,62.00 115.00,64.96 115.00,68.57 C115.00,74.81 115.11,75.12 117.25,74.82 C119.36,74.52 119.52,73.96 119.79,65.80 C120.06,57.56 119.95,57.01 117.67,55.52 C113.82,53.00 110.79,54.84 107.95,61.41 C106.62,64.48 105.17,67.00 104.71,67.00 C104.26,67.00 102.81,64.55 101.48,61.55 C98.19,54.12 94.72,52.28 91.00,56.00 C89.34,57.66 89.00,59.33 89.00,65.83 C89.00,70.14 89.32,73.99 89.71,74.38 ZM 46.86 90.06 C49.59,92.30 50.94,92.44 54.45,90.84 C56.95,89.70 57.42,88.85 57.05,86.15 C56.95,85.41 57.24,85.03 57.69,85.31 C60.15,86.83 65.13,77.73 63.01,75.61 C62.46,75.06 62.00,73.54 62.00,72.23 C62.00,66.90 56.68,63.07 51.27,64.51 C49.75,64.92 49.06,65.45 49.75,65.71 C51.34,66.29 51.39,69.00 49.81,69.00 C47.98,69.00 44.00,73.15 44.00,75.07 C44.00,76.64 46.00,77.63 51.19,78.64 C53.34,79.06 56.00,76.45 56.00,73.93 C56.00,72.87 55.06,71.06 53.92,69.92 C51.42,67.42 51.86,66.68 55.32,67.54 C58.35,68.30 60.16,73.67 57.87,75.08 C56.79,75.75 56.77,76.17 57.76,77.16 C59.54,78.94 59.32,79.53 56.44,80.84 C55.04,81.48 54.14,82.43 54.46,82.94 C55.64,84.85 53.14,84.90 50.73,83.00 C48.40,81.17 48.18,81.15 47.64,82.77 C47.32,83.72 46.48,85.32 45.78,86.31 C44.68,87.87 44.84,88.40 46.86,90.06 ZM 125.22 73.44 C127.62,75.12 140.43,75.65 142.77,74.16 C144.63,72.98 146.00,67.31 146.00,60.76 C146.00,55.03 145.99,55.00 143.00,55.00 L 140.00 55.00 L 140.00 69.00 L 128.00 69.00 L 128.00 62.00 C128.00,55.20 127.93,55.00 125.50,55.00 C123.03,55.00 123.00,55.10 123.00,63.44 C123.00,71.03 123.22,72.04 125.22,73.44 ZM 174.71 74.38 C175.10,74.77 176.34,74.95 177.46,74.79 C179.27,74.53 179.53,73.67 179.79,67.25 L 180.09 60.00 L 184.04 60.00 C187.60,60.00 188.00,59.75 188.00,57.50 L 188.00 55.00 L 165.00 55.00 L 165.00 57.50 C165.00,59.80 165.37,60.00 169.50,60.00 L 174.00 60.00 L 174.00 66.83 C174.00,70.59 174.32,73.99 174.71,74.38 ZM 150.00 73.00 C151.69,74.69 153.33,75.00 160.50,75.00 L 169.00 75.00 L 169.00 69.08 L 161.25 68.79 L 153.50 68.50 L 153.20 61.75 C152.92,55.33 152.79,55.00 150.45,55.00 C148.05,55.00 148.00,55.17 148.00,63.00 C148.00,69.67 148.33,71.33 150.00,73.00 ZM 77.29 76.23 C77.29,81.05 77.66,83.00 78.57,83.00 C80.37,83.00 81.26,77.93 80.44,72.30 C79.37,64.99 76.79,60.97 69.81,55.75 C66.80,53.50 65.10,53.00 60.39,53.00 C54.91,53.00 48.00,54.69 48.00,56.03 C48.00,56.38 50.47,56.21 53.48,55.67 C60.31,54.43 65.60,55.83 70.57,60.19 C75.75,64.75 77.29,68.42 77.29,76.23 ZM 232.68 73.50 L 235.77 81.00 L 228.32 81.00 C221.05,81.00 220.88,80.94 221.57,78.75 C223.37,72.97 227.02,66.00 228.24,66.00 C228.98,66.00 230.98,69.38 232.68,73.50 ZM 190.71 74.38 C191.10,74.77 192.34,74.95 193.46,74.79 C195.33,74.52 195.52,73.69 195.79,64.75 L 196.07 55.00 L 190.00 55.00 L 190.00 64.33 C190.00,69.47 190.32,73.99 190.71,74.38 ZM 55.00 105.98 C55.00,106.54 52.65,107.00 49.75,106.99 C45.76,106.98 43.25,106.26 39.29,103.99 C34.78,101.41 32.00,98.57 32.00,96.57 C32.00,94.86 35.08,96.49 38.52,100.02 C42.68,104.28 48.55,106.58 52.63,105.56 C53.96,105.22 55.00,105.41 55.00,105.98 ZM 102.52 88.98 C102.32,91.69 101.38,92.43 100.62,90.46 C99.67,87.98 99.87,87.00 101.33,87.00 C102.07,87.00 102.60,87.89 102.52,88.98 ZM 92.50 85.00 C92.16,85.55 91.68,86.00 91.44,86.00 C91.20,86.00 91.00,85.55 91.00,85.00 C91.00,84.45 91.48,84.00 92.06,84.00 C92.64,84.00 92.84,84.45 92.50,85.00 Z" fill="rgb(3,15,125)"/>
<path d="M 0.00 94.00 L 4.00 94.00 C6.89,94.00 8.00,93.58 8.00,92.50 C8.00,91.68 8.62,91.00 9.38,91.00 C10.14,91.00 11.32,91.68 12.00,92.50 C12.68,93.32 14.06,94.00 15.06,94.00 C16.06,94.00 17.16,94.45 17.50,95.00 C17.84,95.55 19.21,96.00 20.54,96.00 C23.67,96.00 24.72,92.22 23.03,87.08 C20.69,80.00 22.18,79.27 26.40,85.42 C29.92,90.53 30.58,91.03 33.07,90.48 C35.07,90.04 36.98,90.59 39.94,92.46 C48.94,98.14 63.20,99.41 66.42,94.81 C67.68,93.01 67.68,92.54 66.45,91.31 C65.22,90.08 65.31,89.50 67.11,87.07 C68.25,85.52 69.48,81.85 69.84,78.92 L 70.50 73.58 L 72.36 76.43 C74.21,79.26 74.24,83.82 72.45,89.75 C71.94,91.44 72.17,92.00 73.38,92.00 C74.27,92.00 75.01,91.66 75.02,91.25 C75.03,90.84 76.87,88.97 79.12,87.11 C83.17,83.75 89.00,82.00 89.00,84.14 C89.00,84.89 89.48,84.85 90.48,84.02 C91.30,83.34 91.57,82.72 91.35,81.86 L 92.33 84.04 C92.25,84.01 92.16,84.00 92.06,84.00 C91.48,84.00 91.00,84.45 91.00,85.00 C91.00,85.55 91.20,86.00 91.44,86.00 C91.68,86.00 92.16,85.55 92.50,85.00 C92.56,84.90 92.61,84.80 92.63,84.71 L 93.56 86.75 C95.49,91.01 97.81,95.06 98.73,95.75 C102.47,98.58 105.31,96.36 109.48,87.33 C111.42,83.15 113.00,79.56 113.00,79.36 C113.00,79.16 111.86,79.00 110.46,79.00 L 110.45 79.00 C112.49,78.70 115.95,78.74 122.75,78.84 C127.53,78.92 130.08,78.96 131.44,79.23 C130.17,79.04 127.88,79.08 123.75,79.21 L 114.50 79.50 L 114.20 86.40 C114.04,90.20 114.13,93.91 114.42,94.65 C114.80,95.65 117.31,96.00 123.97,96.00 C132.33,96.00 133.00,95.85 133.00,94.00 C133.00,92.19 132.33,92.00 126.00,92.00 C120.44,92.00 119.00,91.69 119.00,90.50 C119.00,89.31 120.44,89.00 126.00,89.00 C131.32,89.00 133.00,88.67 133.00,87.61 C133.00,86.84 132.21,85.91 131.25,85.54 C129.58,84.90 129.58,84.82 131.25,83.88 C132.18,83.36 132.94,82.11 133.00,81.04 C133.00,81.18 133.00,81.33 133.00,81.50 C133.00,82.88 133.45,84.00 134.00,84.00 C134.55,84.00 135.00,82.88 135.00,81.50 L 135.00 87.50 C135.00,95.33 135.16,96.00 137.00,96.00 C138.56,96.00 139.00,95.33 139.00,93.00 C139.00,90.07 139.11,90.00 144.00,90.00 C148.89,90.00 149.00,90.07 149.00,93.00 C149.00,95.53 149.39,96.00 151.48,96.00 C153.88,96.00 153.95,95.80 153.81,89.25 C153.59,79.19 153.44,79.00 143.59,79.00 L 152.17 79.00 L 153.31 82.00 C154.49,85.14 156.00,86.02 156.00,83.57 C156.00,81.82 156.80,80.66 158.73,79.94 C156.75,80.70 156.00,81.99 156.00,84.00 C156.00,87.38 158.79,89.00 164.57,89.00 C168.73,89.00 170.00,89.35 170.00,90.50 C170.00,91.69 168.56,92.00 163.00,92.00 C156.67,92.00 156.00,92.19 156.00,94.00 C156.00,95.84 156.67,96.00 164.30,96.00 C173.56,96.00 175.00,95.25 175.00,90.41 C175.00,89.29 174.86,88.43 174.52,87.78 C174.60,87.87 174.68,87.96 174.76,88.05 C176.46,90.04 176.51,89.96 177.00,84.80 L 177.50 79.50 L 177.20 86.40 C177.04,90.20 177.13,93.91 177.42,94.65 C177.80,95.65 180.31,96.00 186.97,96.00 C195.33,96.00 196.00,95.85 196.00,94.00 C196.00,92.19 195.33,92.00 189.00,92.00 C183.44,92.00 182.00,91.69 182.00,90.50 C182.00,89.31 183.44,89.00 189.00,89.00 C194.56,89.00 196.00,88.69 196.00,87.50 C196.00,86.32 194.61,86.00 189.50,86.00 C189.41,86.00 189.31,86.00 189.22,86.00 C195.31,85.96 197.39,84.74 199.07,80.32 C199.79,78.43 200.46,78.08 202.41,78.57 C206.69,79.64 208.64,78.41 212.09,71.66 C211.75,72.40 211.40,73.18 211.03,74.00 C208.67,79.22 205.46,86.31 203.91,89.75 L 201.08 96.00 L 207.44 96.00 C213.61,96.00 213.84,95.91 214.85,93.00 L 215.90 90.00 L 239.76 90.00 L 241.00 93.00 C242.18,95.85 242.53,96.00 248.12,96.00 C251.42,96.00 254.00,95.56 254.00,94.99 C254.00,93.98 251.54,88.07 247.97,80.50 C247.15,78.77 245.37,74.91 243.60,71.06 C249.78,84.43 251.84,87.50 254.43,87.82 C256.31,88.05 257.22,88.96 257.90,91.32 C258.54,93.55 258.85,88.76 258.91,75.25 L 259.00 56.00 L 259.00 96.00 L 270.00 96.00 L 270.00 74.06 C270.00,84.72 270.37,91.89 270.91,91.55 C271.42,91.24 271.99,91.48 272.19,92.08 C272.40,92.69 275.02,93.30 278.03,93.45 C281.04,93.59 288.34,94.07 294.25,94.51 L 305.00 95.30 L 305.00 120.00 L 0.00 120.00 L 0.00 94.00 ZM 46.86 90.06 C44.84,88.40 44.68,87.87 45.78,86.31 C46.48,85.32 47.32,83.72 47.64,82.77 C48.18,81.15 48.40,81.17 50.73,83.00 C53.14,84.90 55.64,84.85 54.46,82.94 C54.14,82.43 55.04,81.48 56.44,80.84 C59.32,79.53 59.54,78.94 57.76,77.16 C56.77,76.17 56.79,75.75 57.87,75.08 C60.16,73.67 58.35,68.30 55.32,67.54 C52.06,66.73 51.48,67.34 53.51,69.50 C52.87,69.38 51.98,69.47 50.73,69.71 C47.16,70.39 45.81,74.66 48.54,76.66 C51.22,78.61 52.58,78.30 50.65,76.17 C48.31,73.58 48.60,72.00 51.43,72.00 C52.90,72.00 54.03,72.69 54.31,73.75 C54.60,74.85 54.81,74.50 54.88,72.81 C54.92,72.09 54.90,71.50 54.83,71.03 C55.52,72.03 56.00,73.17 56.00,73.93 C56.00,76.45 53.34,79.06 51.19,78.64 C46.00,77.63 44.00,76.64 44.00,75.07 C44.00,73.15 47.98,69.00 49.81,69.00 C51.39,69.00 51.34,66.29 49.75,65.71 C49.06,65.45 49.75,64.92 51.27,64.51 C56.68,63.07 62.00,66.90 62.00,72.23 C62.00,73.54 62.46,75.06 63.01,75.61 C65.13,77.73 60.15,86.83 57.69,85.31 C57.24,85.03 56.95,85.41 57.05,86.15 C57.42,88.85 56.95,89.70 54.45,90.84 C50.94,92.44 49.59,92.30 46.86,90.06 ZM 77.29 76.23 C77.29,68.42 75.75,64.75 70.57,60.19 C65.60,55.83 60.31,54.43 53.48,55.67 C50.47,56.21 48.00,56.38 48.00,56.03 C48.00,54.69 54.91,53.00 60.39,53.00 C65.10,53.00 66.80,53.50 69.81,55.75 C76.79,60.97 79.37,64.99 80.44,72.30 C81.26,77.93 80.37,83.00 78.57,83.00 C77.66,83.00 77.29,81.05 77.29,76.23 ZM 33.35 83.91 C30.97,80.98 29.00,74.57 28.97,69.63 L 28.95 65.87 C29.21,65.86 29.43,65.94 29.62,66.10 C30.67,66.97 31.19,66.64 31.98,64.54 C32.54,63.07 33.00,61.56 33.00,61.18 C33.00,61.10 33.43,60.58 34.21,59.73 C32.56,61.95 32.45,63.43 32.19,66.99 C31.89,71.21 32.28,74.43 33.45,77.52 C35.37,82.54 35.31,86.31 33.35,83.91 ZM 55.00 105.98 C55.00,105.41 53.96,105.22 52.63,105.56 C48.55,106.58 42.68,104.28 38.52,100.02 C35.08,96.49 32.00,94.86 32.00,96.57 C32.00,98.57 34.78,101.41 39.29,103.99 C43.25,106.26 45.76,106.98 49.75,106.99 C52.65,107.00 55.00,106.54 55.00,105.98 ZM 102.52 88.98 C102.60,87.89 102.07,87.00 101.33,87.00 C100.18,87.00 99.81,87.60 100.17,89.06 L 98.68 85.75 C98.12,84.51 97.64,83.49 97.22,82.66 C97.46,82.81 97.72,82.46 98.17,81.66 C99.33,79.59 101.39,79.53 103.37,81.52 C104.73,82.87 105.09,82.82 106.75,81.04 C107.35,80.39 107.82,79.92 108.47,79.58 C107.45,80.35 106.50,82.09 104.82,85.75 L 101.72 92.50 L 101.26 91.48 C101.83,91.88 102.37,90.96 102.52,88.98 ZM 43.75 49.82 C45.67,47.86 47.77,45.76 49.95,43.57 C57.28,36.26 63.44,29.79 65.63,27.18 C64.44,28.77 61.98,31.50 59.01,34.49 L 50.80 42.74 L 54.15 43.37 C57.87,44.08 64.54,47.79 63.66,48.67 C63.36,48.98 61.14,48.28 58.74,47.11 C52.18,43.94 50.00,43.94 43.75,49.82 ZM 148.75 84.75 C149.05,85.64 147.69,86.00 144.00,86.00 C140.31,86.00 138.95,85.64 139.25,84.75 C139.50,84.01 141.42,83.50 144.00,83.50 C146.58,83.50 148.50,84.01 148.75,84.75 ZM 50.00 74.00 C50.00,74.55 50.45,75.00 51.00,75.00 C51.55,75.00 52.00,74.55 52.00,74.00 C52.00,73.45 51.55,73.00 51.00,73.00 C50.45,73.00 50.00,73.45 50.00,74.00 ZM 96.55 81.16 C96.62,81.38 96.68,81.57 96.74,81.74 C95.44,79.39 94.60,79.00 92.86,79.00 L 92.90 79.00 C95.06,79.00 96.05,79.59 96.55,81.16 ZM 216.06 63.70 C218.13,59.81 219.31,58.56 221.63,57.24 C219.62,58.46 218.04,60.23 216.06,63.70 ZM 170.45 86.04 C170.00,86.01 169.51,86.00 168.98,86.00 C166.48,86.00 165.41,85.52 165.62,85.00 C165.53,85.52 166.83,86.00 169.57,86.00 C169.87,86.00 170.16,86.01 170.45,86.04 ZM 66.40 25.88 C66.04,25.64 64.64,25.32 62.74,25.03 C64.65,25.31 66.06,25.58 66.35,25.75 C66.39,25.77 66.41,25.82 66.40,25.88 ZM 58.82 24.55 L 52.09 23.89 L 52.08 23.85 L 58.79 24.55 ZM 222.84 56.58 L 222.91 56.54 C224.45,55.75 226.27,55.33 228.10,55.25 C226.43,55.34 224.74,55.72 223.22,56.41 C223.09,56.46 222.96,56.52 222.84,56.58 ZM 24.27 69.49 L 20.98 73.00 C22.26,71.60 23.34,70.44 24.27,69.49 ZM 11.39 82.00 C11.34,82.02 11.29,82.03 11.25,82.03 C11.01,82.03 10.80,81.75 10.64,81.13 C10.83,81.76 11.08,81.99 11.39,82.00 ZM 234.72 56.62 C235.28,56.92 235.79,57.27 236.23,57.67 C236.25,57.68 236.26,57.69 236.27,57.70 C235.81,57.29 235.29,56.93 234.72,56.62 Z" fill="rgb(6,84,164)"/>
<path d="M 216.06 63.70 C218.04,60.23 219.62,58.46 221.63,57.24 C222.00,57.02 222.40,56.81 222.84,56.58 C222.96,56.52 223.09,56.46 223.22,56.41 C224.74,55.72 226.43,55.34 228.10,55.25 C230.47,55.15 232.86,55.63 234.72,56.62 C235.29,56.93 235.81,57.29 236.27,57.70 C237.44,58.79 240.08,63.38 242.19,68.00 C242.68,69.08 243.15,70.10 243.60,71.06 L 243.60 71.07 C245.37,74.91 247.15,78.77 247.97,80.50 C251.54,88.07 254.00,93.98 254.00,94.99 C254.00,95.56 251.42,96.00 248.12,96.00 C242.53,96.00 242.18,95.85 241.00,93.00 L 239.76 90.00 L 215.90 90.00 L 214.85 93.00 C213.84,95.91 213.61,96.00 207.44,96.00 L 201.08 96.00 L 203.91 89.75 C205.46,86.31 208.67,79.22 211.03,74.00 C211.40,73.18 211.75,72.40 212.09,71.66 C212.41,71.04 212.74,70.38 213.09,69.66 C214.30,67.16 215.25,65.22 216.06,63.70 ZM 270.00 56.00 L 270.00 96.00 L 259.00 96.00 L 259.00 56.00 ZM 232.68 73.50 C230.98,69.38 228.98,66.00 228.24,66.00 C227.02,66.00 223.37,72.97 221.57,78.75 C220.88,80.94 221.05,81.00 228.32,81.00 L 235.77 81.00 ZM 50.73 69.71 C51.98,69.47 52.87,69.38 53.51,69.50 C53.64,69.63 53.77,69.77 53.92,69.92 C54.24,70.24 54.55,70.62 54.83,71.03 C54.90,71.50 54.92,72.09 54.88,72.81 C54.81,74.50 54.60,74.85 54.31,73.75 C54.03,72.69 52.90,72.00 51.43,72.00 C48.60,72.00 48.31,73.58 50.65,76.17 C52.58,78.30 51.22,78.61 48.54,76.66 C45.81,74.66 47.16,70.39 50.73,69.71 ZM 35.34 58.34 C34.90,58.84 34.53,59.30 34.21,59.73 C33.43,60.58 33.00,61.10 33.00,61.18 C33.00,61.56 32.54,63.07 31.98,64.54 C31.19,66.64 30.67,66.97 29.62,66.10 C29.43,65.94 29.21,65.86 28.95,65.87 L 28.94 64.74 C31.01,62.68 33.16,60.53 35.34,58.34 ZM 11.39 82.00 C11.31,82.00 11.23,81.98 11.16,81.94 C12.11,81.32 18.02,75.59 25.65,68.02 L 24.27 69.49 L 20.98 73.00 L 20.72 73.28 C16.45,77.85 12.41,81.62 11.39,82.00 ZM 50.00 74.00 C50.00,73.45 50.45,73.00 51.00,73.00 C51.55,73.00 52.00,73.45 52.00,74.00 C52.00,74.55 51.55,75.00 51.00,75.00 C50.45,75.00 50.00,74.55 50.00,74.00 ZM 58.82 24.55 C60.22,24.70 61.57,24.86 62.74,25.03 C64.64,25.32 66.04,25.64 66.40,25.88 C66.39,25.92 66.38,25.96 66.36,26.00 C65.71,25.63 62.78,25.07 59.29,24.66 L 55.82 24.25 ZM 49.99 43.54 C55.92,37.50 61.03,32.22 63.93,29.10 C61.02,32.32 55.88,37.65 49.99,43.54 ZM 10.00 65.24 C10.00,73.54 10.21,78.90 10.61,81.00 C10.16,79.12 10.00,74.46 10.00,65.24 Z" fill="rgb(122,106,234)"/>
<path d="M 98.73 95.75 C97.81,95.06 95.49,91.01 93.56,86.75 L 90.05 79.00 L 92.84 79.00 C95.32,79.00 95.97,79.76 98.68,85.75 L 101.72 92.50 L 104.82 85.75 C107.46,80.00 108.29,79.00 110.46,79.00 C111.86,79.00 113.00,79.16 113.00,79.36 C113.00,79.56 111.42,83.15 109.48,87.33 C105.31,96.36 102.47,98.58 98.73,95.75 ZM 114.42 94.65 C114.13,93.91 114.04,90.20 114.20,86.40 L 114.50 79.50 L 123.75 79.21 C132.41,78.94 133.00,79.05 133.00,80.91 C133.00,82.01 132.21,83.34 131.25,83.88 C129.58,84.82 129.58,84.90 131.25,85.54 C132.21,85.91 133.00,86.84 133.00,87.61 C133.00,88.67 131.32,89.00 126.00,89.00 C120.44,89.00 119.00,89.31 119.00,90.50 C119.00,91.69 120.44,92.00 126.00,92.00 C132.33,92.00 133.00,92.19 133.00,94.00 C133.00,95.85 132.33,96.00 123.97,96.00 C117.31,96.00 114.80,95.65 114.42,94.65 ZM 135.00 87.50 L 135.00 79.00 L 143.46 79.00 C153.44,79.00 153.59,79.15 153.81,89.25 C153.95,95.80 153.88,96.00 151.48,96.00 C149.39,96.00 149.00,95.53 149.00,93.00 C149.00,90.07 148.89,90.00 144.00,90.00 C139.11,90.00 139.00,90.07 139.00,93.00 C139.00,95.33 138.56,96.00 137.00,96.00 C135.16,96.00 135.00,95.33 135.00,87.50 ZM 148.75 84.75 C148.50,84.01 146.58,83.50 144.00,83.50 C141.42,83.50 139.50,84.01 139.25,84.75 C138.95,85.64 140.31,86.00 144.00,86.00 C147.69,86.00 149.05,85.64 148.75,84.75 ZM 156.00 94.00 C156.00,92.19 156.67,92.00 163.00,92.00 C168.56,92.00 170.00,91.69 170.00,90.50 C170.00,89.35 168.73,89.00 164.57,89.00 C158.79,89.00 156.00,87.38 156.00,84.00 C156.00,80.20 158.68,79.00 167.14,79.00 C174.86,79.00 175.13,79.08 174.82,81.25 C174.55,83.17 173.80,83.54 169.73,83.81 C164.69,84.13 164.05,86.00 168.98,86.00 C173.70,86.00 175.00,86.95 175.00,90.41 C175.00,95.25 173.56,96.00 164.30,96.00 C156.67,96.00 156.00,95.84 156.00,94.00 ZM 177.42 94.65 C177.13,93.91 177.04,90.20 177.20,86.40 L 177.50 79.50 L 186.75 79.21 L 196.00 78.92 L 196.00 81.46 C196.00,83.92 195.79,84.00 189.50,84.00 C185.83,84.00 183.00,84.44 183.00,85.00 C183.00,85.56 185.83,86.00 189.50,86.00 C194.61,86.00 196.00,86.32 196.00,87.50 C196.00,88.69 194.56,89.00 189.00,89.00 C183.44,89.00 182.00,89.31 182.00,90.50 C182.00,91.69 183.44,92.00 189.00,92.00 C195.33,92.00 196.00,92.19 196.00,94.00 C196.00,95.85 195.33,96.00 186.97,96.00 C180.31,96.00 177.80,95.65 177.42,94.65 ZM 10.00 65.24 L 10.00 48.48 L 29.53 28.99 C44.05,14.49 49.27,9.85 49.91,10.87 C50.38,11.63 51.06,14.85 51.42,18.03 L 52.08 23.82 L 59.29 24.66 C63.26,25.12 66.50,25.79 66.50,26.14 C66.50,27.24 12.13,82.00 11.04,82.00 C10.36,82.00 10.00,76.16 10.00,65.24 ZM 89.71 74.38 C89.32,73.99 89.00,70.14 89.00,65.83 C89.00,59.33 89.34,57.66 91.00,56.00 C94.72,52.28 98.19,54.12 101.48,61.55 C102.81,64.55 104.26,67.00 104.71,67.00 C105.17,67.00 106.62,64.48 107.95,61.41 C110.79,54.84 113.82,53.00 117.67,55.52 C119.95,57.01 120.06,57.56 119.79,65.80 C119.52,73.96 119.36,74.52 117.25,74.82 C115.11,75.12 115.00,74.81 115.00,68.57 C115.00,64.96 114.65,62.00 114.21,62.00 C113.78,62.00 111.97,64.95 110.19,68.57 C105.98,77.11 103.88,77.10 99.33,68.53 C97.58,65.24 95.78,62.43 95.33,62.27 C94.87,62.12 94.50,64.81 94.50,68.25 C94.50,73.78 94.26,74.53 92.46,74.79 C91.34,74.95 90.10,74.77 89.71,74.38 ZM 125.22 73.44 C123.22,72.04 123.00,71.03 123.00,63.44 C123.00,55.10 123.03,55.00 125.50,55.00 C127.93,55.00 128.00,55.20 128.00,62.00 L 128.00 69.00 L 134.00 69.00 L 140.00 69.00 L 140.00 62.00 L 140.00 55.00 L 143.00 55.00 C145.99,55.00 146.00,55.03 146.00,60.76 C146.00,67.31 144.63,72.98 142.77,74.16 C140.43,75.65 127.62,75.12 125.22,73.44 ZM 150.00 73.00 C148.33,71.33 148.00,69.67 148.00,63.00 C148.00,55.17 148.05,55.00 150.45,55.00 C152.79,55.00 152.92,55.33 153.20,61.75 L 153.50 68.50 L 161.25 68.79 L 169.00 69.08 L 169.00 72.04 L 169.00 75.00 L 160.50 75.00 C153.33,75.00 151.69,74.69 150.00,73.00 ZM 174.71 74.38 C174.32,73.99 174.00,70.59 174.00,66.83 L 174.00 60.00 L 169.50 60.00 C165.37,60.00 165.00,59.80 165.00,57.50 L 165.00 55.00 L 176.50 55.00 L 188.00 55.00 L 188.00 57.50 C188.00,59.75 187.60,60.00 184.04,60.00 L 180.09 60.00 L 179.79 67.25 C179.53,73.67 179.27,74.53 177.46,74.79 C176.34,74.95 175.10,74.77 174.71,74.38 ZM 190.71 74.38 C190.32,73.99 190.00,69.47 190.00,64.33 L 190.00 55.00 L 193.04 55.00 L 196.07 55.00 L 195.79 64.75 C195.52,73.69 195.33,74.52 193.46,74.79 C192.34,74.95 191.10,74.77 190.71,74.38 ZM 241.35 46.44 C238.99,44.08 238.81,43.30 239.17,37.01 C239.81,25.61 238.80,26.00 267.90,26.02 C281.43,26.02 293.00,26.36 293.60,26.77 C295.81,28.24 297.00,32.00 297.00,37.50 C297.00,43.00 295.81,46.76 293.60,48.23 C293.00,48.64 281.57,48.98 268.20,48.98 L 243.91 49.00 L 241.35 46.44 Z" fill="rgb(238,173,147)"/>
</g>
</svg>